<?xml version="1.0" encoding="utf-8"?>
<!-- Generator: Adobe Illustrator 24.2.0, SVG Export Plug-In . SVG Version: 6.00 Build 0)  -->
<svg version="1.1" id="Layer_1" xmlns="http://www.w3.org/2000/svg" xmlns:xlink="http://www.w3.org/1999/xlink" x="0px" y="0px"
	 viewBox="0 0 89.5 83" style="enable-background:new 0 0 89.5 83;" xml:space="preserve">
<style type="text/css">
	.st0{fill-rule:evenodd;clip-rule:evenodd;}
</style>
<g>
	<path class="st0" d="M51.2,18v-3.6L47.1,2.6c-0.3-1,0.2-2.1,1.2-2.4c1-0.3,2.1,0.2,2.4,1.2l2.7,7.9c0.6-0.4,1.3-0.8,2-1
		c-1.4-0.6-2.4-2-2.4-3.6c0-2.1,1.7-3.9,3.8-3.9c2.1,0,3.9,1.7,3.9,3.9c0,1.6-1,3-2.4,3.6c0.7,0.2,1.4,0.5,2,1l2.9-7.9
		c0.4-1,1.5-1.5,2.5-1.1c1,0.4,1.5,1.5,1.2,2.5l-4.2,11.5V18h3.1c1.1,0,2.2,0.9,2.4,2l3.6,19h-54l3.6-19c0.2-1.1,1.3-2,2.4-2h3.3
		v-4.2c0-0.2,0-0.5,0-0.7l-4.9-8.2C21.8,4,22,2.8,23,2.3C23.9,1.7,25,2,25.6,3l3.8,6.3c0.6-0.5,1.3-0.8,2.1-1
		c-1.4-0.6-2.4-2-2.4-3.6c0-2.1,1.7-3.9,3.8-3.9c2.1,0,3.9,1.7,3.9,3.9c0,1.6-1,3-2.4,3.6c0.9,0.2,1.8,0.7,2.5,1.4l4-6.7
		c0.5-0.9,1.7-1.2,2.6-0.7c0.9,0.6,1.2,1.7,0.7,2.6l-5.5,9.1V18H51.2 M23.8,49C17.6,62.6,4.1,78.6,0,83h3.2
		C7.8,77.7,20,62.6,26.6,49h36.2c6.6,13.6,18.8,28.7,23.5,34h3.2c-4.1-4.4-17.6-20.4-23.8-34h4.1c1.1,0,2-0.9,2-2v-6h-54v6
		c0,1.1,0.9,2,2,2H23.8 M26.1,56.1h37.6c0.8,1.4,1.5,2.7,2.3,4H23.7C24.5,58.8,25.3,57.5,26.1,56.1 M29.7,49H60
		c0.8,1.7,1.6,3.4,2.5,5H27.2C28.1,52.4,28.9,50.7,29.7,49 M22.5,62.1h44.7c1.1,1.7,2.2,3.4,3.3,5H19.2
		C20.3,65.5,21.4,63.9,22.5,62.1 M17.6,69.6h54.6c1.3,1.8,2.5,3.5,3.7,5h-62C15,73.1,16.3,71.4,17.6,69.6 M77.7,77H12.4l-4.6,6h75h0
		C82.8,83,80.8,80.8,77.7,77"/>
</g>
</svg>
