<?xml version="1.0" encoding="utf-8"?>
<!-- Generator: Adobe Illustrator 24.2.0, SVG Export Plug-In . SVG Version: 6.00 Build 0)  -->
<svg version="1.1" id="Layer_1" xmlns="http://www.w3.org/2000/svg" xmlns:xlink="http://www.w3.org/1999/xlink" x="0px" y="0px"
	 viewBox="0 0 67.6 84.7" style="enable-background:new 0 0 67.6 84.7;" xml:space="preserve">
<style type="text/css">
	.st0{fill:none;}
</style>
<path class="st0" d="M59.3,67.7C59.3,67.6,59.3,67.6,59.3,67.7c-0.2-0.6-0.4-1.2-0.6-1.8c0,0.1,0,0.1,0,0.2c0,0,0,0.1,0,0.1
	c0,0.2,0,0.3,0,0.5c0,0,0,0.1,0,0.1c0,0.1-0.1,0.3-0.1,0.4c0,0,0,0,0,0.1c-0.1,0.2-0.2,0.3-0.3,0.4c0,0-0.1,0.1-0.1,0.1
	c-0.1,0.1-0.2,0.3-0.4,0.4c0,0,0,0,0,0c-0.2,0.1-0.3,0.3-0.5,0.4c0,0-0.1,0.1-0.1,0.1c-0.2,0.1-0.4,0.3-0.6,0.4c0,0,0,0,0,0
	c-0.2,0.1-0.5,0.3-0.7,0.4c-0.1,0-0.1,0.1-0.2,0.1c-0.3,0.1-0.5,0.3-0.8,0.4c0,0-0.1,0-0.1,0.1c-0.3,0.1-0.6,0.2-0.8,0.3
	c-0.1,0-0.1,0.1-0.2,0.1c-0.3,0.1-0.7,0.2-1,0.3c-0.1,0-0.2,0-0.2,0.1c-0.3,0.1-0.7,0.2-1,0.3c-0.1,0-0.1,0-0.2,0.1
	c-0.4,0.1-0.8,0.2-1.2,0.3c-0.1,0-0.2,0-0.3,0.1c-0.4,0.1-0.8,0.2-1.2,0.3c-0.1,0-0.1,0-0.2,0c-0.5,0.1-0.9,0.2-1.4,0.3
	c-0.1,0-0.2,0-0.3,0.1c-0.5,0.1-1,0.2-1.6,0.2c-12.4,1.7-27.4,0.2-33.4-3.2c-0.2-0.1-0.5-0.3-0.7-0.4c-0.1,0-0.1-0.1-0.2-0.1
	c-0.2-0.1-0.3-0.2-0.4-0.3c0,0-0.1-0.1-0.1-0.1c-0.2-0.1-0.3-0.3-0.4-0.4c0,0,0-0.1-0.1-0.1c-0.1-0.1-0.2-0.2-0.3-0.3
	c0,0-0.1-0.1-0.1-0.1C9,67.1,9,67,8.9,66.9c0,0,0,0,0,0c-0.1-0.1-0.1-0.3-0.1-0.4c0,0,0-0.1,0-0.1c0-0.1,0-0.2,0-0.3
	c0,0,0-0.1,0-0.1c0-0.1,0-0.3,0.1-0.4c-0.2,0.7-0.5,1.4-0.7,2c0,0,0,0,0,0c0,0.1-0.1,0.3-0.1,0.4c0,0,0,0.1,0,0.1c0,0.1,0,0.2,0,0.3
	c0,0,0,0.1,0,0.1c0,0.1,0.1,0.3,0.1,0.4c0,0,0,0,0,0c0.1,0.1,0.1,0.3,0.2,0.4c0,0,0.1,0.1,0.1,0.1c0.1,0.1,0.2,0.2,0.3,0.3
	c0,0,0,0.1,0.1,0.1c0.1,0.1,0.3,0.3,0.4,0.4c0,0,0.1,0.1,0.1,0.1c0.1,0.1,0.3,0.2,0.4,0.3c0.1,0,0.1,0.1,0.2,0.1
	c0.2,0.1,0.4,0.3,0.7,0.4c6.2,3.5,21.6,5,34.4,3.3c0.5-0.1,1.1-0.2,1.6-0.2c0.1,0,0.2,0,0.4-0.1c0.5-0.1,1-0.2,1.5-0.3
	c0.1,0,0.1,0,0.2,0c0.4-0.1,0.9-0.2,1.3-0.3c0.1,0,0.2,0,0.3-0.1c0.4-0.1,0.9-0.2,1.3-0.3c0.1,0,0.1,0,0.2-0.1
	c0.4-0.1,0.7-0.2,1-0.3c0.1,0,0.2,0,0.2-0.1c0.4-0.1,0.7-0.2,1.1-0.4c0.1,0,0.1-0.1,0.2-0.1c0.3-0.1,0.6-0.2,0.9-0.3
	c0,0,0.1,0,0.1-0.1c0.3-0.1,0.6-0.3,0.9-0.4c0.1,0,0.1-0.1,0.2-0.1c0.3-0.1,0.5-0.3,0.7-0.4c0,0,0,0,0,0c0.2-0.1,0.4-0.3,0.6-0.4
	c0,0,0.1-0.1,0.1-0.1c0.2-0.1,0.4-0.3,0.5-0.4c0,0,0,0,0,0c0.1-0.1,0.3-0.3,0.4-0.4c0,0,0.1-0.1,0.1-0.1c0.1-0.2,0.2-0.3,0.3-0.5
	c0,0,0,0,0-0.1c0.1-0.1,0.1-0.3,0.1-0.4c0,0,0-0.1,0-0.1c0-0.2,0-0.3,0-0.5c0,0,0-0.1,0-0.1C59.4,67.9,59.3,67.8,59.3,67.7z"/>
<path d="M67.6,71c0,0,0-0.1,0-0.1c0-0.2-0.1-0.4-0.1-0.6c0,0,0,0,0,0c0-0.1-0.1-0.3-0.1-0.5c0-0.1,0-0.2-0.1-0.2c0,0,0-0.1,0-0.1
	c0-0.1-0.1-0.2-0.1-0.2c0-0.1,0-0.1-0.1-0.2c0,0,0,0,0,0c-0.3-0.7-0.6-1.2-0.8-1.4c-0.1-0.2-0.3-0.4-0.5-0.7c0,0,0,0,0,0
	c-0.1-0.1-0.1-0.1-0.2-0.2c-0.1-0.1-0.2-0.2-0.3-0.4c0,0,0,0-0.1-0.1c-0.1-0.1-0.2-0.2-0.3-0.3c-0.1-0.1-0.1-0.1-0.2-0.1
	c0,0-0.1-0.1-0.1-0.1c-0.1-0.1-0.2-0.2-0.3-0.2c-0.4-0.3-0.7-0.6-1.2-0.9c0,0,0,0-0.1,0c-0.3-0.2-0.6-0.4-0.9-0.5
	c-0.3-0.2-0.9-0.5-1.8-0.9c0,0,0,0,0,0c-0.2-0.1-0.5-0.2-0.7-0.3c-0.1,0-0.1-0.1-0.2-0.1c0,0-0.1,0-0.1,0c-0.6-0.3-1.3-0.5-2-0.7
	c-0.1-0.2-0.2-0.5-0.2-0.7c-0.3-1-0.8-2.3-1.1-3.3c-0.7-2-1.6-4.6-2.2-6.5c-0.7-2-1.6-4.6-2.2-6.5c-0.3-1-0.8-2.3-1.1-3.3
	c-0.7-2-1.6-4.6-2.2-6.5c-0.7-2-1.6-4.6-2.2-6.5c-0.3-1-0.8-2.3-1.1-3.3c-0.7-2-1.6-4.6-2.2-6.5c-0.7-2-1.6-4.6-2.2-6.5
	c-0.3-1-0.8-2.3-1.1-3.3c-0.7-2-1.6-4.6-2.2-6.5l0,0c0-0.1-0.1-0.3-0.2-0.4c0,0,0-0.1,0-0.1c0-0.1-0.1-0.2-0.2-0.3c0,0,0,0,0,0
	C36.3,1.3,36.2,1.2,36,1c0,0,0,0,0,0c0,0-0.1-0.1-0.1-0.1c-0.1-0.1-0.1-0.1-0.2-0.1c0,0-0.1,0-0.1-0.1c-0.1-0.1-0.3-0.2-0.3-0.2
	c-0.1,0-0.2-0.1-0.4-0.2c-0.1,0-0.1,0-0.2-0.1c-0.1,0-0.1,0-0.2-0.1c-0.1,0-0.2-0.1-0.4-0.1c0,0-0.1,0-0.1,0c-0.2,0-0.4,0-0.6,0
	c0,0,0,0,0,0c0,0,0,0,0,0c-0.1,0-0.3,0.1-0.4,0.1c0,0,0,0,0,0c-0.1,0-0.2,0.1-0.3,0.1c0,0,0,0,0,0c-0.2,0.1-0.4,0.2-0.6,0.4
	c0,0,0,0-0.1,0.1c0,0-0.1,0-0.1,0.1c-0.3,0.3-0.6,0.7-0.7,1c0,0.1-0.1,0.1-0.1,0.2c-0.1,0.2-0.1,0.3-0.2,0.4c0,0,0,0,0,0
	c-0.7,2-1.6,4.6-2.3,6.5c-0.3,1-0.8,2.3-1.1,3.3c-0.7,2-1.6,4.6-2.3,6.5s-1.6,4.6-2.3,6.5c-0.3,1-0.8,2.3-1.1,3.3
	c-0.7,2-1.6,4.6-2.3,6.5s-1.6,4.6-2.3,6.5c-0.3,1-0.8,2.3-1.1,3.3c-0.7,2-1.6,4.6-2.3,6.5s-1.6,4.6-2.3,6.5c-0.3,1-0.8,2.3-1.1,3.3
	c-0.1,0.2-0.2,0.5-0.3,0.7c0,0,0,0-0.1,0c-0.6,0.2-1.3,0.4-1.8,0.7c-0.1,0-0.2,0.1-0.3,0.1c0,0,0,0,0,0c0,0,0,0,0,0
	c0,0-0.1,0-0.2,0.1c-0.2,0.1-0.5,0.2-0.7,0.3C7,63,6.9,63,6.8,63.1c-0.1,0-0.1,0-0.2,0.1c-0.1,0.1-0.2,0.1-0.3,0.2
	c-0.3,0.1-0.5,0.3-0.7,0.4c-0.2,0.1-0.4,0.3-0.6,0.4c-0.1,0-0.1,0.1-0.2,0.1c-0.2,0.1-0.5,0.3-0.8,0.5c0,0-0.1,0.1-0.1,0.1
	c-0.2,0.2-0.5,0.4-0.8,0.6c-0.1,0.1-0.1,0.1-0.2,0.2c-0.2,0.2-0.4,0.4-0.6,0.6c-0.3,0.4-0.7,0.8-0.9,1.2c0,0,0,0,0,0.1c0,0,0,0,0,0
	c-0.3,0.4-0.7,1.4-0.9,1.8c0,0.1,0,0.1-0.1,0.2c0,0,0,0,0,0.1c-0.2,0.5-0.2,0.9-0.3,1.3c0,0,0,0.1,0,0.1c0,0.2,0,0.4,0,0.7
	c0,0,0,0.1,0,0.1c0,0.2,0,0.5,0.1,1c0,0,0,0,0,0.1c0,0.1,0,0.3,0.1,0.4c0,0.1,0,0.2,0.1,0.3c0.1,0.5,0.3,1,0.6,1.5c0,0,0,0.1,0,0.1
	c0,0.1,0.1,0.1,0.1,0.2c0,0,0,0.1,0.1,0.1c0.2,0.3,0.3,0.6,0.5,0.8c0,0,0,0.1,0.1,0.1c0,0,0.2,0.3,0.5,0.6c0,0,0,0,0,0
	c0.1,0.1,0.2,0.2,0.3,0.3c0,0,0.1,0.1,0.1,0.1c0,0,0.1,0.1,0.1,0.1C2.8,77.6,3,77.8,3.2,78c0,0,0.1,0.1,0.1,0.1c0,0,0,0,0,0
	c0.1,0.1,0.4,0.3,0.6,0.5c0.1,0,0.1,0.1,0.2,0.1c0.1,0.1,0.2,0.1,0.3,0.2c0.3,0.2,0.6,0.4,0.9,0.6c0.1,0,0.1,0.1,0.2,0.1
	c0,0,0,0,0,0c0.3,0.2,0.6,0.3,0.9,0.5c0.2,0.1,0.4,0.2,0.5,0.3c0.1,0.1,0.2,0.1,0.4,0.2c0.3,0.1,0.5,0.2,0.8,0.3
	c0.1,0.1,0.3,0.1,0.4,0.2c0.1,0,0.2,0.1,0.4,0.1c0,0,0.1,0,0.1,0c0.3,0.1,0.6,0.2,1,0.4c0.1,0,0.1,0,0.2,0.1
	c0.3,0.1,0.6,0.2,0.9,0.3c0.1,0,0.1,0,0.2,0.1c0.3,0.1,0.5,0.2,0.8,0.2c0.1,0,0.2,0,0.2,0.1c0.2,0.1,0.5,0.1,0.8,0.2
	c0.3,0.1,0.5,0.1,0.7,0.2c0.4,0.1,1.1,0.3,1.8,0.4c0.2,0,0.4,0.1,0.6,0.1c0.6,0.1,1.2,0.2,1.5,0.3c0.5,0.1,1,0.2,1.4,0.2
	c0.3,0,0.5,0.1,0.8,0.1c0.5,0.1,1.1,0.2,1.7,0.2c0.1,0,0.2,0,0.3,0c0.6,0.1,1.2,0.1,2.1,0.2c0.6,0.1,5.6,0.6,11.5,0.5
	c0.2,0,0.5,0,0.7,0c0.2,0,0.3,0,0.4,0c0.3,0,0.7,0,1,0c2.2-0.1,3.9-0.2,4.9-0.3c0.3,0,0.5,0,0.8-0.1c0.3,0,0.7-0.1,1-0.1
	c0.2,0,0.3,0,0.5-0.1c0.9-0.1,1.7-0.2,2.4-0.3c0.3,0,2-0.3,4.2-0.7c0.7-0.1,1.2-0.2,1.7-0.3c1.1-0.2,2.2-0.5,3.2-0.8
	c0.2-0.1,0.3-0.1,0.5-0.1c0.7-0.2,1.3-0.4,1.8-0.6c0.6-0.2,0.9-0.3,1.1-0.4c0.1,0,0.1-0.1,0.2-0.1c0.1,0,0.1-0.1,0.2-0.1
	c0.7-0.3,1.2-0.5,1.6-0.7c0,0,0.1,0,0.1,0c0.1,0,0.6-0.3,1.2-0.7c0,0,0,0,0.1,0c0.4-0.2,0.9-0.6,1.5-1c0,0,0,0,0,0c0,0,0,0,0,0
	c0.2-0.2,0.4-0.4,0.6-0.6c0,0,0,0,0,0c0.4-0.4,0.8-0.9,1.2-1.4c0,0,0-0.1,0.1-0.1c0,0,0,0,0,0c0,0,0,0,0,0c0,0,0,0,0-0.1
	c0.1-0.1,0.2-0.3,0.3-0.5c0-0.1,0.1-0.1,0.1-0.2c0-0.1,0.1-0.1,0.1-0.2c0.2-0.3,0.3-0.6,0.4-0.8l0,0c0,0,0,0,0,0c0,0,0,0,0-0.1
	c0-0.1,0-0.1,0-0.2c0.2-0.5,0.2-0.6,0.3-1c0,0,0,0,0,0c0-0.1,0-0.2,0-0.3c0.1-0.4,0.1-0.7,0.1-1c0,0,0-0.1,0-0.1
	C67.6,71.4,67.6,71.2,67.6,71z M39.2,44c0.7-1.8,1.3-3.5,1.7-5.3c0.6,1.5,1.5,3,2.5,4.6c1.5,0.2,3,0.4,4.5,0.8
	c-0.4,1.2-1,2.5-1.8,3.9c0.8,1.8,1.8,3.5,2.8,5.2c-2.2-0.6-4.4-1.2-6.4-1.8c-1.7,1-3.6,2.1-5.6,3.1c0.3-1.8,0.5-3.7,0.8-5.5
	c-1.4-1.1-2.5-2.1-3.5-2.9C36.1,45.4,37.7,44.6,39.2,44z M25,24.4c1.5-0.1,3,0.1,4.6,0.4c1.2-1.2,2.5-2.2,3.7-3.2
	c0.1,1.7,0.3,3.4,0.4,5.1c1.3,1,2.6,2.1,3.9,3.2c-1.4,0.3-2.9,0.9-4.3,1.4c-0.4,1.6-0.8,3.3-1.2,4.9c-1-1.3-2-2.6-3.1-3.9
	c-1.6,0.1-3.1,0.3-4.7,0.6c0.8-1.4,1.6-2.9,2.4-4.4C26.1,27.1,25.6,25.7,25,24.4z M22.9,44.9c-1.4,2.8-1.7,6.2-0.5,9.3
	c2.3,5.9,8.9,8.8,14.8,6.5c0.6-0.3,1.3-0.6,1.8-0.9c-1.2,2.4-3.3,4.4-6,5.5c-5.9,2.3-12.5-0.6-14.8-6.5
	C16.2,53.6,18.3,47.8,22.9,44.9z M59.4,68.6C59.4,68.7,59.3,68.7,59.4,68.6c-0.1,0.2-0.1,0.4-0.2,0.5c0,0,0,0,0,0.1
	c-0.1,0.2-0.2,0.3-0.3,0.5c0,0-0.1,0.1-0.1,0.1c-0.1,0.1-0.2,0.3-0.4,0.4c0,0,0,0,0,0c-0.2,0.2-0.3,0.3-0.5,0.4c0,0-0.1,0.1-0.1,0.1
	c-0.2,0.1-0.4,0.3-0.6,0.4c0,0,0,0,0,0c-0.2,0.1-0.5,0.3-0.7,0.4c-0.1,0-0.1,0.1-0.2,0.1c-0.3,0.1-0.6,0.3-0.9,0.4
	c0,0-0.1,0-0.1,0.1c-0.3,0.1-0.6,0.2-0.9,0.3c-0.1,0-0.1,0.1-0.2,0.1c-0.3,0.1-0.7,0.2-1.1,0.4c-0.1,0-0.2,0-0.2,0.1
	c-0.3,0.1-0.7,0.2-1,0.3c-0.1,0-0.1,0-0.2,0.1c-0.4,0.1-0.8,0.2-1.3,0.3c-0.1,0-0.2,0-0.3,0.1c-0.4,0.1-0.8,0.2-1.3,0.3
	c-0.1,0-0.1,0-0.2,0c-0.5,0.1-1,0.2-1.5,0.3c-0.1,0-0.2,0-0.4,0.1c-0.5,0.1-1.1,0.2-1.6,0.2c-12.7,1.7-28.1,0.2-34.4-3.3
	c-0.2-0.1-0.5-0.3-0.7-0.4c-0.1,0-0.1-0.1-0.2-0.1c-0.2-0.1-0.3-0.2-0.4-0.3c0,0-0.1-0.1-0.1-0.1c-0.2-0.1-0.3-0.3-0.4-0.4
	c0,0-0.1-0.1-0.1-0.1c-0.1-0.1-0.2-0.2-0.3-0.3c0,0-0.1-0.1-0.1-0.1c-0.1-0.1-0.1-0.3-0.2-0.4c0,0,0,0,0,0c-0.1-0.1-0.1-0.3-0.1-0.4
	c0,0,0-0.1,0-0.1c0-0.1,0-0.2,0-0.3c0,0,0-0.1,0-0.1c0-0.1,0-0.3,0.1-0.4c0,0,0,0,0,0c0.2-0.6,0.5-1.3,0.7-2c0,0.1-0.1,0.3-0.1,0.4
	c0,0,0,0.1,0,0.1c0,0.1,0,0.2,0,0.3c0,0,0,0.1,0,0.1c0,0.1,0.1,0.3,0.1,0.4c0,0,0,0,0,0C9,67,9,67.2,9.1,67.3c0,0,0.1,0.1,0.1,0.1
	c0.1,0.1,0.2,0.2,0.3,0.3c0,0,0,0.1,0.1,0.1c0.1,0.1,0.3,0.3,0.4,0.4c0,0,0.1,0.1,0.1,0.1c0.1,0.1,0.3,0.2,0.4,0.3
	c0.1,0,0.1,0.1,0.2,0.1c0.2,0.1,0.4,0.3,0.7,0.4c6.1,3.5,21,4.9,33.4,3.2c0.5-0.1,1.1-0.2,1.6-0.2c0.1,0,0.2,0,0.3-0.1
	c0.5-0.1,1-0.2,1.4-0.3c0.1,0,0.1,0,0.2,0c0.4-0.1,0.8-0.2,1.2-0.3c0.1,0,0.2,0,0.3-0.1c0.4-0.1,0.8-0.2,1.2-0.3
	c0.1,0,0.1,0,0.2-0.1c0.3-0.1,0.7-0.2,1-0.3c0.1,0,0.2,0,0.2-0.1c0.4-0.1,0.7-0.2,1-0.3c0.1,0,0.1-0.1,0.2-0.1
	c0.3-0.1,0.6-0.2,0.8-0.3c0,0,0.1,0,0.1-0.1c0.3-0.1,0.6-0.3,0.8-0.4c0.1,0,0.1-0.1,0.2-0.1c0.2-0.1,0.5-0.3,0.7-0.4c0,0,0,0,0,0
	c0.2-0.1,0.4-0.3,0.6-0.4c0,0,0.1-0.1,0.1-0.1c0.2-0.1,0.4-0.3,0.5-0.4c0,0,0,0,0,0c0.1-0.1,0.3-0.3,0.4-0.4c0,0,0.1-0.1,0.1-0.1
	c0.1-0.1,0.2-0.3,0.3-0.4c0,0,0,0,0-0.1c0.1-0.1,0.1-0.3,0.1-0.4c0,0,0-0.1,0-0.1c0-0.2,0-0.3,0-0.5c0,0,0-0.1,0-0.1
	c0-0.1,0-0.1,0-0.2c0.2,0.6,0.4,1.2,0.6,1.8c0,0,0,0,0,0.1c0,0.1,0.1,0.3,0.1,0.4c0,0,0,0.1,0,0.1C59.4,68.3,59.4,68.5,59.4,68.6z"
	/>
</svg>
