<?xml version="1.0" encoding="utf-8"?>
<!-- Generator: Adobe Illustrator 24.2.0, SVG Export Plug-In . SVG Version: 6.00 Build 0)  -->
<svg version="1.1" id="Layer_1" xmlns="http://www.w3.org/2000/svg" xmlns:xlink="http://www.w3.org/1999/xlink" x="0px" y="0px"
	 viewBox="0 0 78.6 76.4" style="enable-background:new 0 0 78.6 76.4;" xml:space="preserve">
<g>
	<path d="M63.4,40.7c-0.4,0-0.7-0.3-0.7-0.7c0-13.6-6.2-28.3-20.1-30.4c-0.4-0.1-0.7-0.4-0.6-0.8c0.1-0.4,0.4-0.7,0.8-0.6
		C57.5,10.4,64.1,25.8,64.1,40C64.1,40.4,63.8,40.7,63.4,40.7L63.4,40.7z"/>
	<g>
		<path d="M32.8,51.1c-0.3,0-0.5-0.2-0.7-0.4L19.5,24.4c-0.2-0.4,0-0.8,0.3-1c0.4-0.2,0.8,0,1,0.3l12.6,26.3c0.2,0.4,0,0.8-0.3,1
			C33,51.1,32.9,51.1,32.8,51.1z"/>
		<path d="M16.4,36.5c-0.2,0-0.4-0.1-0.5-0.2c-0.3-0.3-0.3-0.8,0-1c1.3-1.3,2.7-2.6,4.1-4c4.7-4.4,9.9-9.4,13.8-15.7
			c0.2-0.3,0.7-0.5,1-0.2c0.3,0.2,0.5,0.7,0.2,1c-3.9,6.5-9.3,11.5-14,16c-1.4,1.4-2.8,2.7-4.1,4C16.8,36.4,16.6,36.5,16.4,36.5z"/>
		<path d="M21.7,42.2c-0.2,0-0.5-0.1-0.6-0.3c-0.2-0.3-0.2-0.8,0.2-1c5.2-3.7,8.8-8.3,12.7-13.1c1.7-2.2,3.5-4.4,5.5-6.6
			c0.3-0.3,0.7-0.3,1-0.1c0.3,0.3,0.3,0.7,0.1,1c-2,2.2-3.7,4.4-5.5,6.6c-3.9,4.9-7.7,9.6-13,13.4C22,42.2,21.9,42.2,21.7,42.2z"/>
		<path d="M26.9,47.7c-0.2,0-0.4-0.1-0.6-0.3c-0.2-0.3-0.2-0.8,0.1-1c7.3-5.5,12.6-11.3,15.7-17.3c0.2-0.4,0.6-0.5,1-0.3
			c0.4,0.2,0.5,0.6,0.3,1c-3.3,6.1-8.7,12.1-16.1,17.7C27.2,47.7,27,47.7,26.9,47.7z"/>
		<path d="M34.3,50.4c-0.2,0-0.5-0.1-0.6-0.3c-0.2-0.3-0.2-0.8,0.2-1c4.2-3,7-5.9,9.5-9.9c0.2-0.3,0.7-0.5,1-0.2
			c0.3,0.2,0.5,0.7,0.2,1c-2.6,4.2-5.6,7.3-9.9,10.4C34.6,50.3,34.4,50.4,34.3,50.4z"/>
		<path d="M41,48.4c-0.3,0-0.5-0.1-0.6-0.4l-17-29.6c-0.2-0.4-0.1-0.8,0.3-1c0.4-0.2,0.8-0.1,1,0.3l17,29.6c0.2,0.4,0.1,0.8-0.3,1
			C41.2,48.4,41.1,48.4,41,48.4z"/>
		<path d="M42.6,34.7c-0.2,0-0.5-0.1-0.6-0.3L28.3,15.2c-0.2-0.3-0.2-0.8,0.2-1c0.3-0.2,0.8-0.2,1,0.2l13.7,19.2
			c0.2,0.3,0.2,0.8-0.2,1C42.9,34.7,42.8,34.7,42.6,34.7z"/>
		<path d="M21.2,42.4c-0.3,0-0.5-0.1-0.7-0.4l-4.9-9.9c-0.2-0.4,0-0.8,0.3-1c0.4-0.2,0.8,0,1,0.3l4.9,9.9c0.2,0.4,0,0.8-0.3,1
			C21.5,42.3,21.4,42.4,21.2,42.4z"/>
	</g>
	<path d="M78,73.7L62.5,55.1C66,51.5,68.6,47,70,42c1.1-3.3,1.8-6.7,1.8-10.4C71.8,14.2,57.6,0,40.2,0c-5.5,0-10.6,1.4-15.1,3.8
		C14.1,9,6.6,20.2,6.6,33c0,8.7,3.5,16.6,9.2,22.5L0.3,73.9c-0.4,0.5-0.5,1.2-0.1,1.8c0.3,0.4,0.7,0.7,1.2,0.7c0.1,0,0.3,0,0.4-0.1
		l21.7-6.8c0.5-0.2,0.9-0.6,1-1l1.4-5.8c4,1.7,8.3,2.8,12.9,2.8c4.8,0,9.4-1.1,13.5-3l1.5,6c0.1,0.5,0.5,0.9,1,1l21.7,6.8
		c0.1,0,0.3,0.1,0.4,0.1c0,0,0,0,0,0c0.8,0.1,1.5-0.7,1.5-1.5C78.6,74.4,78.4,74,78,73.7z M22,66.9L5.8,72l15.4-18.4l3.3,3L22,66.9z
		 M51.4,55.1C51,55.4,50.8,56,51,56.5l0.7,2.9c-3.6,1.5-7.4,2.4-11.5,2.4c-4.7,0-9.2-1.1-13.1-3l0.6-2.3c0.1-0.5,0-1.1-0.4-1.4
		L22,50.4C21.8,50.1,21.4,50,21,50c-0.4,0-0.8,0.2-1,0.5l-1.6,1.9C13.2,47,10,39.7,10,31.6C10,15,23.5,1.5,40.2,1.5
		S70.3,15,70.3,31.6c0,8.5-3.6,16.2-9.3,21.7l-2.4-2.8c-0.3-0.3-0.6-0.5-1-0.5c-0.4,0-0.8,0.1-1.1,0.4L51.4,55.1z M56.6,66.9
		L54,56.6l3.3-3L72.7,72L56.6,66.9z"/>
</g>
</svg>
