<?xml version="1.0" encoding="utf-8"?>
<!-- Generator: Adobe Illustrator 24.2.0, SVG Export Plug-In . SVG Version: 6.00 Build 0)  -->
<svg version="1.1" id="Layer_1" xmlns="http://www.w3.org/2000/svg" xmlns:xlink="http://www.w3.org/1999/xlink" x="0px" y="0px"
	 viewBox="0 0 89.4 85.8" style="enable-background:new 0 0 89.4 85.8;" xml:space="preserve">
<style type="text/css">
	.st0{fill-rule:evenodd;clip-rule:evenodd;}
</style>
<g>
	<path class="st0" d="M18.5,34.3c-1.4,0-2.6,0.1-3.7,0C2.2,32.9-4,19.7,2.8,9C7.4,1.9,16.1-1.5,24,0.7c9,2.5,13.8,11.3,11.1,20.2
		c-0.2,0.7-0.4,1.3-0.7,2.2c7-2.2,13.8-2,20.8,0.4c-0.1-0.4-0.1-0.5-0.2-0.7c-2.4-6.1-2-11.9,2.4-17C61.7,0.7,67.5-0.8,74,0.4
		C81.6,1.8,87.8,8,89.1,15.2c1.8,9.9-5.3,18.7-15.5,19.1c-1.1,0-2.3,0-3.6,0c5.3,7.7,7.5,16.1,5.8,25.3C74,68.9,69.1,76.1,61.1,81
		c-12.6,7.8-28.9,5.8-39.3-4.4C11.7,66.8,8,49.4,18.5,34.3z M26.1,59.4c-1.1-0.8-2-1.5-3-2.1c-1.9-1.1-3.8-1.5-6-0.9
		c-1.3,0.4-1.7,1-1.4,2.4C17.1,66,20.6,72,26.4,76.5C43.8,90,68.8,80.3,72.9,58.6c0.2-1.2-0.2-1.7-1.3-2.1c-2.4-0.8-4.6-0.2-6.7,1.1
		c-0.9,0.6-1.7,1.2-2.7,1.9c0.4-2.4,0.9-4.5,1.2-6.7c0.6-4.5,0.9-8.9-0.7-13.2c-1.2-3.3-3.5-5.2-7.1-5.4C52.2,34,49.1,35,46,36.4
		c-1.2,0.6-2.2,0.6-3.5,0c-1.9-0.8-3.9-1.5-5.9-1.9c-6.2-1.4-10.3,1.2-11.5,7.5c-0.5,2.6-0.5,5.4-0.4,8C25,53.1,25.6,56.3,26.1,59.4
		z"/>
	<path class="st0" d="M40.2,52.3c-0.5,1.4-0.8,3-1.5,4.3c-1.2,2.1-3.3,2.2-4.9,0.5c-2.3-2.4-2.7-7.7-0.7-10.4
		c1.3-1.8,3.2-1.9,4.8-0.3C39.4,48,39.9,50.1,40.2,52.3z"/>
	<path class="st0" d="M56.4,51.3c-0.3,2.2-0.8,4.1-2.2,5.7c-1.6,1.9-3.7,1.7-5-0.3c-1.8-2.8-1.5-7.8,0.8-10.2c1.6-1.8,3.8-1.7,5,0.5
		C55.6,48.3,55.9,49.9,56.4,51.3z"/>
	<path class="st0" d="M44.1,65.2c-1.8-0.5-3.5-0.9-5-1.6c-1.8-0.9-1.7-2.5-0.1-3.7c2.5-1.7,7.8-1.7,10.3,0c1.6,1.1,1.7,2.8-0.1,3.7
		C47.6,64.4,45.8,64.7,44.1,65.2z"/>
</g>
</svg>
