<?xml version="1.0" encoding="utf-8"?>
<!-- Generator: Adobe Illustrator 24.2.0, SVG Export Plug-In . SVG Version: 6.00 Build 0)  -->
<svg version="1.1" id="Layer_1" xmlns="http://www.w3.org/2000/svg" xmlns:xlink="http://www.w3.org/1999/xlink" x="0px" y="0px"
	 viewBox="0 0 85.1 40.4" style="enable-background:new 0 0 85.1 40.4;" xml:space="preserve">
<g>
	<path d="M73.4,6.8h-0.3V5.6c0-3.1-2.5-5.6-5.6-5.6h-50c-3.1,0-5.6,2.5-5.6,5.6v1.3h-0.3C5.2,6.8,0,12,0,18.4v3.5
		c0,6.4,5.2,11.6,11.6,11.7c0,0,0,0,0,0h0.3v1.3c0,3.1,2.5,5.6,5.6,5.6c0,0,0,0,0,0h50.1c3.1,0,5.6-2.5,5.6-5.6v-1.3h0.3
		c6.4,0,11.6-5.2,11.6-11.6v-3.5C85,12,79.8,6.8,73.4,6.8z M11.6,30.6L11.6,30.6C6.9,30.6,3,26.7,3,22v-3.5c0-4.8,3.9-8.6,8.6-8.6
		l0,0V30.6z M64,30.8H22c-0.8,0-1.5-0.7-1.5-1.5s0.7-1.5,1.5-1.5H64c0.8,0,1.5,0.7,1.5,1.5S64.9,30.8,64,30.8z M64,17.4H22
		c-0.8,0-1.5-0.7-1.5-1.5s0.7-1.5,1.5-1.5H64c0.8,0,1.5,0.7,1.5,1.5S64.9,17.4,64,17.4z M82,22c0,4.8-3.9,8.6-8.6,8.6l0,0V9.8l0,0
		c4.8,0,8.6,3.8,8.7,8.6L82,22z"/>
</g>
</svg>
