<?xml version="1.0" encoding="utf-8"?>
<!-- Generator: Adobe Illustrator 24.2.0, SVG Export Plug-In . SVG Version: 6.00 Build 0)  -->
<svg version="1.1" id="Layer_1" xmlns="http://www.w3.org/2000/svg" xmlns:xlink="http://www.w3.org/1999/xlink" x="0px" y="0px"
	 viewBox="0 0 64 60.3" style="enable-background:new 0 0 64 60.3;" xml:space="preserve">
<g>
	<g>
		<g>
			<g>
				<path d="M59.9,18.8v4.2c0,0.3-0.1,0.5-0.3,0.7c-0.7,0.8-1.5,1-2.2,1c-1.9,0-3.5-2-4.5-1.3v1.5l3.9,9.8h-9.9l3.9-9.8v-7.8
					c0-0.6,0.4-1,1-1c0.5,0,1,0.4,1,1c2.3-0.4,4,2.3,5.2,1c0.3-0.3,0.7-0.4,1.1-0.3C59.7,18,59.9,18.4,59.9,18.8z"/>
			</g>
		</g>
		<g>
			<g>
				<g>
					<path d="M41.1,29.4c0,0.5-0.4,1-1,1h-0.7V35c-0.5-0.3-1-0.5-1.6-0.5c-0.8,0-1.4,0.3-2,0.7c-0.5-0.5-1.2-0.7-2-0.7
						c-0.8,0-1.4,0.3-2,0.7c-0.5-0.5-1.2-0.7-2-0.7c-0.8,0-1.4,0.3-2,0.7c-0.5-0.5-1.2-0.7-2-0.7c-0.5,0-0.9,0.1-1.3,0.3v-4.4h-0.7
						c-0.6,0-1-0.5-1-1s0.4-1,1-1h16.2C40.7,28.4,41.1,28.9,41.1,29.4z"/>
				</g>
			</g>
		</g>
		<g>
			<g>
				<g>
					<path d="M42.8,3.4v5.9c0,0.3-0.1,0.5-0.3,0.7c-0.9,1-1.9,1.3-2.8,1.3c-2.8,0-5-3.1-6.8-1.6v2.4l5.7,14.3H25.3L31,12.2V1
						c0-0.5,0.5-1,1-1c0.6,0,1,0.5,1,1v0.5c3.3-1.1,6,3.5,8.1,1.2c0.3-0.3,0.7-0.4,1.1-0.3C42.6,2.6,42.8,3,42.8,3.4z"/>
				</g>
			</g>
		</g>
		<g>
			<g>
				<path d="M19.4,18.8v4.2c0,0.3-0.1,0.5-0.3,0.7c-0.7,0.8-1.4,1-2.2,1c-1.9,0-3.5-2-4.5-1.3v1.5l3.9,9.8H6.6l3.9-9.8v-7.8
					c0-0.6,0.4-1,1-1c0.5,0,1,0.4,1,1c2.3-0.4,4,2.3,5.2,1c0.3-0.3,0.7-0.4,1.1-0.3C19.2,18,19.4,18.4,19.4,18.8z"/>
			</g>
		</g>
	</g>
	<g>
		<path d="M63,44h-0.2v-1.5c0-0.6-0.5-1-1-1c-0.6,0-1,0.4-1,1V44h-1.1v14.3h-2.2V38.7h0.2c0.6,0,1-0.5,1-1c0-0.6-0.4-1-1-1H46.3
			c-0.6,0-1,0.4-1,1c0,0.5,0.4,1,1,1h0.2v19.6h-1.8V39.4c-0.2-0.2-0.5-0.4-0.8-0.4h-1.2v-1.5c0-0.6-0.4-1-1-1s-1,0.4-1,1V39h-1.9
			v-1.5c0-0.6-0.5-1-1-1c-0.6,0-1,0.4-1,1V39h-2v-1.5c0-0.6-0.4-1-1-1c-0.5,0-1,0.4-1,1V39h-1.9v-1.5c0-0.6-0.4-1-1-1
			c-0.6,0-1,0.4-1,1V39h-1.9v-1.5c0-0.6-0.4-1-1-1c-0.6,0-1,0.4-1,1V39H23v-1.5c0-0.6-0.5-1-1-1c-0.6,0-1,0.4-1,1V39h-0.9
			c-0.5,0-1,0.5-1,1c0,3.2-0.1,16.9-0.1,18.3h-2V38.7h0.2c0.5,0,1-0.5,1-1c0-0.6-0.5-1-1-1H5.8c-0.6,0-1,0.4-1,1c0,0.5,0.4,1,1,1H6
			v19.6H4V44H3.4v-1.5c0-0.6-0.4-1-1-1s-1,0.4-1,1V44H1c-0.6,0-1,0.5-1,1v14.3c0,0.6,0.4,1,1,1h62c0.6,0,1-0.4,1-1V45
			C64,44.5,63.6,44,63,44z M37.7,58.3H26v-7.4c0-3.2,2.6-5.9,5.8-5.9c3.3,0,5.9,2.6,5.9,5.9V58.3z"/>
	</g>
</g>
</svg>
